<?xml version="1.0" encoding="utf-8" standalone="no"?>
<!DOCTYPE svg PUBLIC "-//W3C//DTD SVG 1.1//EN"
  "http://www.w3.org/Graphics/SVG/1.1/DTD/svg11.dtd">
<!-- Created with matplotlib (https://matplotlib.org/) -->
<svg height="407.909531pt" version="1.1" viewBox="0 0 1271.061875 407.909531" width="1271.061875pt" xmlns="http://www.w3.org/2000/svg" xmlns:xlink="http://www.w3.org/1999/xlink">
 <defs>
  <style type="text/css">
*{stroke-linecap:butt;stroke-linejoin:round;}
  </style>
 </defs>
 <g id="figure_1">
  <g id="patch_1">
   <path d="M 0 407.909531 
L 1271.061875 407.909531 
L 1271.061875 0 
L 0 0 
z
" style="fill:#ffffff;"/>
  </g>
  <g id="axes_1">
   <g id="patch_2">
    <path d="M 65.116875 347.82 
L 613.387076 347.82 
L 613.387076 7.2 
L 65.116875 7.2 
z
" style="fill:#eaeaf2;"/>
   </g>
   <g id="matplotlib.axis_1">
    <g id="xtick_1">
     <g id="line2d_1">
      <path clip-path="url(#p6ef12b0a35)" d="M 81.351559 347.82 
L 81.351559 7.2 
" style="fill:none;stroke:#ffffff;stroke-linecap:round;"/>
     </g>
     <g id="text_1">
      <!-- 0 -->
      <defs>
       <path d="M 31.78125 66.40625 
Q 24.171875 66.40625 20.328125 58.90625 
Q 16.5 51.421875 16.5 36.375 
Q 16.5 21.390625 20.328125 13.890625 
Q 24.171875 6.390625 31.78125 6.390625 
Q 39.453125 6.390625 43.28125 13.890625 
Q 47.125 21.390625 47.125 36.375 
Q 47.125 51.421875 43.28125 58.90625 
Q 39.453125 66.40625 31.78125 66.40625 
z
M 31.78125 74.21875 
Q 44.046875 74.21875 50.515625 64.515625 
Q 56.984375 54.828125 56.984375 36.375 
Q 56.984375 17.96875 50.515625 8.265625 
Q 44.046875 -1.421875 31.78125 -1.421875 
Q 19.53125 -1.421875 13.0625 8.265625 
Q 6.59375 17.96875 6.59375 36.375 
Q 6.59375 54.828125 13.0625 64.515625 
Q 19.53125 74.21875 31.78125 74.21875 
z
" id="DejaVuSans-48"/>
      </defs>
      <g style="fill:#262626;" transform="translate(76.102496 369.857422)scale(0.165 -0.165)">
       <use xlink:href="#DejaVuSans-48"/>
      </g>
     </g>
    </g>
    <g id="xtick_2">
     <g id="line2d_2">
      <path clip-path="url(#p6ef12b0a35)" d="M 168.588476 347.82 
L 168.588476 7.2 
" style="fill:none;stroke:#ffffff;stroke-linecap:round;"/>
     </g>
     <g id="text_2">
      <!-- 10 -->
      <defs>
       <path d="M 12.40625 8.296875 
L 28.515625 8.296875 
L 28.515625 63.921875 
L 10.984375 60.40625 
L 10.984375 69.390625 
L 28.421875 72.90625 
L 38.28125 72.90625 
L 38.28125 8.296875 
L 54.390625 8.296875 
L 54.390625 0 
L 12.40625 0 
z
" id="DejaVuSans-49"/>
      </defs>
      <g style="fill:#262626;" transform="translate(158.090351 369.857422)scale(0.165 -0.165)">
       <use xlink:href="#DejaVuSans-49"/>
       <use x="63.623047" xlink:href="#DejaVuSans-48"/>
      </g>
     </g>
    </g>
    <g id="xtick_3">
     <g id="line2d_3">
      <path clip-path="url(#p6ef12b0a35)" d="M 255.825393 347.82 
L 255.825393 7.2 
" style="fill:none;stroke:#ffffff;stroke-linecap:round;"/>
     </g>
     <g id="text_3">
      <!-- 20 -->
      <defs>
       <path d="M 19.1875 8.296875 
L 53.609375 8.296875 
L 53.609375 0 
L 7.328125 0 
L 7.328125 8.296875 
Q 12.9375 14.109375 22.625 23.890625 
Q 32.328125 33.6875 34.8125 36.53125 
Q 39.546875 41.84375 41.421875 45.53125 
Q 43.3125 49.21875 43.3125 52.78125 
Q 43.3125 58.59375 39.234375 62.25 
Q 35.15625 65.921875 28.609375 65.921875 
Q 23.96875 65.921875 18.8125 64.3125 
Q 13.671875 62.703125 7.8125 59.421875 
L 7.8125 69.390625 
Q 13.765625 71.78125 18.9375 73 
Q 24.125 74.21875 28.421875 74.21875 
Q 39.75 74.21875 46.484375 68.546875 
Q 53.21875 62.890625 53.21875 53.421875 
Q 53.21875 48.921875 51.53125 44.890625 
Q 49.859375 40.875 45.40625 35.40625 
Q 44.1875 33.984375 37.640625 27.21875 
Q 31.109375 20.453125 19.1875 8.296875 
z
" id="DejaVuSans-50"/>
      </defs>
      <g style="fill:#262626;" transform="translate(245.327268 369.857422)scale(0.165 -0.165)">
       <use xlink:href="#DejaVuSans-50"/>
       <use x="63.623047" xlink:href="#DejaVuSans-48"/>
      </g>
     </g>
    </g>
    <g id="xtick_4">
     <g id="line2d_4">
      <path clip-path="url(#p6ef12b0a35)" d="M 343.062311 347.82 
L 343.062311 7.2 
" style="fill:none;stroke:#ffffff;stroke-linecap:round;"/>
     </g>
     <g id="text_4">
      <!-- 30 -->
      <defs>
       <path d="M 40.578125 39.3125 
Q 47.65625 37.796875 51.625 33 
Q 55.609375 28.21875 55.609375 21.1875 
Q 55.609375 10.40625 48.1875 4.484375 
Q 40.765625 -1.421875 27.09375 -1.421875 
Q 22.515625 -1.421875 17.65625 -0.515625 
Q 12.796875 0.390625 7.625 2.203125 
L 7.625 11.71875 
Q 11.71875 9.328125 16.59375 8.109375 
Q 21.484375 6.890625 26.8125 6.890625 
Q 36.078125 6.890625 40.9375 10.546875 
Q 45.796875 14.203125 45.796875 21.1875 
Q 45.796875 27.640625 41.28125 31.265625 
Q 36.765625 34.90625 28.71875 34.90625 
L 20.21875 34.90625 
L 20.21875 43.015625 
L 29.109375 43.015625 
Q 36.375 43.015625 40.234375 45.921875 
Q 44.09375 48.828125 44.09375 54.296875 
Q 44.09375 59.90625 40.109375 62.90625 
Q 36.140625 65.921875 28.71875 65.921875 
Q 24.65625 65.921875 20.015625 65.03125 
Q 15.375 64.15625 9.8125 62.3125 
L 9.8125 71.09375 
Q 15.4375 72.65625 20.34375 73.4375 
Q 25.25 74.21875 29.59375 74.21875 
Q 40.828125 74.21875 47.359375 69.109375 
Q 53.90625 64.015625 53.90625 55.328125 
Q 53.90625 49.265625 50.4375 45.09375 
Q 46.96875 40.921875 40.578125 39.3125 
z
" id="DejaVuSans-51"/>
      </defs>
      <g style="fill:#262626;" transform="translate(332.564186 369.857422)scale(0.165 -0.165)">
       <use xlink:href="#DejaVuSans-51"/>
       <use x="63.623047" xlink:href="#DejaVuSans-48"/>
      </g>
     </g>
    </g>
    <g id="xtick_5">
     <g id="line2d_5">
      <path clip-path="url(#p6ef12b0a35)" d="M 430.299228 347.82 
L 430.299228 7.2 
" style="fill:none;stroke:#ffffff;stroke-linecap:round;"/>
     </g>
     <g id="text_5">
      <!-- 40 -->
      <defs>
       <path d="M 37.796875 64.3125 
L 12.890625 25.390625 
L 37.796875 25.390625 
z
M 35.203125 72.90625 
L 47.609375 72.90625 
L 47.609375 25.390625 
L 58.015625 25.390625 
L 58.015625 17.1875 
L 47.609375 17.1875 
L 47.609375 0 
L 37.796875 0 
L 37.796875 17.1875 
L 4.890625 17.1875 
L 4.890625 26.703125 
z
" id="DejaVuSans-52"/>
      </defs>
      <g style="fill:#262626;" transform="translate(419.801103 369.857422)scale(0.165 -0.165)">
       <use xlink:href="#DejaVuSans-52"/>
       <use x="63.623047" xlink:href="#DejaVuSans-48"/>
      </g>
     </g>
    </g>
    <g id="xtick_6">
     <g id="line2d_6">
      <path clip-path="url(#p6ef12b0a35)" d="M 517.536145 347.82 
L 517.536145 7.2 
" style="fill:none;stroke:#ffffff;stroke-linecap:round;"/>
     </g>
     <g id="text_6">
      <!-- 50 -->
      <defs>
       <path d="M 10.796875 72.90625 
L 49.515625 72.90625 
L 49.515625 64.59375 
L 19.828125 64.59375 
L 19.828125 46.734375 
Q 21.96875 47.46875 24.109375 47.828125 
Q 26.265625 48.1875 28.421875 48.1875 
Q 40.625 48.1875 47.75 41.5 
Q 54.890625 34.8125 54.890625 23.390625 
Q 54.890625 11.625 47.5625 5.09375 
Q 40.234375 -1.421875 26.90625 -1.421875 
Q 22.3125 -1.421875 17.546875 -0.640625 
Q 12.796875 0.140625 7.71875 1.703125 
L 7.71875 11.625 
Q 12.109375 9.234375 16.796875 8.0625 
Q 21.484375 6.890625 26.703125 6.890625 
Q 35.15625 6.890625 40.078125 11.328125 
Q 45.015625 15.765625 45.015625 23.390625 
Q 45.015625 31 40.078125 35.4375 
Q 35.15625 39.890625 26.703125 39.890625 
Q 22.75 39.890625 18.8125 39.015625 
Q 14.890625 38.140625 10.796875 36.28125 
z
" id="DejaVuSans-53"/>
      </defs>
      <g style="fill:#262626;" transform="translate(507.03802 369.857422)scale(0.165 -0.165)">
       <use xlink:href="#DejaVuSans-53"/>
       <use x="63.623047" xlink:href="#DejaVuSans-48"/>
      </g>
     </g>
    </g>
    <g id="xtick_7">
     <g id="line2d_7">
      <path clip-path="url(#p6ef12b0a35)" d="M 604.773063 347.82 
L 604.773063 7.2 
" style="fill:none;stroke:#ffffff;stroke-linecap:round;"/>
     </g>
     <g id="text_7">
      <!-- 60 -->
      <defs>
       <path d="M 33.015625 40.375 
Q 26.375 40.375 22.484375 35.828125 
Q 18.609375 31.296875 18.609375 23.390625 
Q 18.609375 15.53125 22.484375 10.953125 
Q 26.375 6.390625 33.015625 6.390625 
Q 39.65625 6.390625 43.53125 10.953125 
Q 47.40625 15.53125 47.40625 23.390625 
Q 47.40625 31.296875 43.53125 35.828125 
Q 39.65625 40.375 33.015625 40.375 
z
M 52.59375 71.296875 
L 52.59375 62.3125 
Q 48.875 64.0625 45.09375 64.984375 
Q 41.3125 65.921875 37.59375 65.921875 
Q 27.828125 65.921875 22.671875 59.328125 
Q 17.53125 52.734375 16.796875 39.40625 
Q 19.671875 43.65625 24.015625 45.921875 
Q 28.375 48.1875 33.59375 48.1875 
Q 44.578125 48.1875 50.953125 41.515625 
Q 57.328125 34.859375 57.328125 23.390625 
Q 57.328125 12.15625 50.6875 5.359375 
Q 44.046875 -1.421875 33.015625 -1.421875 
Q 20.359375 -1.421875 13.671875 8.265625 
Q 6.984375 17.96875 6.984375 36.375 
Q 6.984375 53.65625 15.1875 63.9375 
Q 23.390625 74.21875 37.203125 74.21875 
Q 40.921875 74.21875 44.703125 73.484375 
Q 48.484375 72.75 52.59375 71.296875 
z
" id="DejaVuSans-54"/>
      </defs>
      <g style="fill:#262626;" transform="translate(594.274938 369.857422)scale(0.165 -0.165)">
       <use xlink:href="#DejaVuSans-54"/>
       <use x="63.623047" xlink:href="#DejaVuSans-48"/>
      </g>
     </g>
    </g>
    <g id="text_8">
     <!-- Days since 2020-03-03 -->
     <defs>
      <path d="M 19.671875 64.796875 
L 19.671875 8.109375 
L 31.59375 8.109375 
Q 46.6875 8.109375 53.6875 14.9375 
Q 60.6875 21.78125 60.6875 36.53125 
Q 60.6875 51.171875 53.6875 57.984375 
Q 46.6875 64.796875 31.59375 64.796875 
z
M 9.8125 72.90625 
L 30.078125 72.90625 
Q 51.265625 72.90625 61.171875 64.09375 
Q 71.09375 55.28125 71.09375 36.53125 
Q 71.09375 17.671875 61.125 8.828125 
Q 51.171875 0 30.078125 0 
L 9.8125 0 
z
" id="DejaVuSans-68"/>
      <path d="M 34.28125 27.484375 
Q 23.390625 27.484375 19.1875 25 
Q 14.984375 22.515625 14.984375 16.5 
Q 14.984375 11.71875 18.140625 8.90625 
Q 21.296875 6.109375 26.703125 6.109375 
Q 34.1875 6.109375 38.703125 11.40625 
Q 43.21875 16.703125 43.21875 25.484375 
L 43.21875 27.484375 
z
M 52.203125 31.203125 
L 52.203125 0 
L 43.21875 0 
L 43.21875 8.296875 
Q 40.140625 3.328125 35.546875 0.953125 
Q 30.953125 -1.421875 24.3125 -1.421875 
Q 15.921875 -1.421875 10.953125 3.296875 
Q 6 8.015625 6 15.921875 
Q 6 25.140625 12.171875 29.828125 
Q 18.359375 34.515625 30.609375 34.515625 
L 43.21875 34.515625 
L 43.21875 35.40625 
Q 43.21875 41.609375 39.140625 45 
Q 35.0625 48.390625 27.6875 48.390625 
Q 23 48.390625 18.546875 47.265625 
Q 14.109375 46.140625 10.015625 43.890625 
L 10.015625 52.203125 
Q 14.9375 54.109375 19.578125 55.046875 
Q 24.21875 56 28.609375 56 
Q 40.484375 56 46.34375 49.84375 
Q 52.203125 43.703125 52.203125 31.203125 
z
" id="DejaVuSans-97"/>
      <path d="M 32.171875 -5.078125 
Q 28.375 -14.84375 24.75 -17.8125 
Q 21.140625 -20.796875 15.09375 -20.796875 
L 7.90625 -20.796875 
L 7.90625 -13.28125 
L 13.1875 -13.28125 
Q 16.890625 -13.28125 18.9375 -11.515625 
Q 21 -9.765625 23.484375 -3.21875 
L 25.09375 0.875 
L 2.984375 54.6875 
L 12.5 54.6875 
L 29.59375 11.921875 
L 46.6875 54.6875 
L 56.203125 54.6875 
z
" id="DejaVuSans-121"/>
      <path d="M 44.28125 53.078125 
L 44.28125 44.578125 
Q 40.484375 46.53125 36.375 47.5 
Q 32.28125 48.484375 27.875 48.484375 
Q 21.1875 48.484375 17.84375 46.4375 
Q 14.5 44.390625 14.5 40.28125 
Q 14.5 37.15625 16.890625 35.375 
Q 19.28125 33.59375 26.515625 31.984375 
L 29.59375 31.296875 
Q 39.15625 29.25 43.1875 25.515625 
Q 47.21875 21.78125 47.21875 15.09375 
Q 47.21875 7.46875 41.1875 3.015625 
Q 35.15625 -1.421875 24.609375 -1.421875 
Q 20.21875 -1.421875 15.453125 -0.5625 
Q 10.6875 0.296875 5.421875 2 
L 5.421875 11.28125 
Q 10.40625 8.6875 15.234375 7.390625 
Q 20.0625 6.109375 24.8125 6.109375 
Q 31.15625 6.109375 34.5625 8.28125 
Q 37.984375 10.453125 37.984375 14.40625 
Q 37.984375 18.0625 35.515625 20.015625 
Q 33.0625 21.96875 24.703125 23.78125 
L 21.578125 24.515625 
Q 13.234375 26.265625 9.515625 29.90625 
Q 5.8125 33.546875 5.8125 39.890625 
Q 5.8125 47.609375 11.28125 51.796875 
Q 16.75 56 26.8125 56 
Q 31.78125 56 36.171875 55.265625 
Q 40.578125 54.546875 44.28125 53.078125 
z
" id="DejaVuSans-115"/>
      <path id="DejaVuSans-32"/>
      <path d="M 9.421875 54.6875 
L 18.40625 54.6875 
L 18.40625 0 
L 9.421875 0 
z
M 9.421875 75.984375 
L 18.40625 75.984375 
L 18.40625 64.59375 
L 9.421875 64.59375 
z
" id="DejaVuSans-105"/>
      <path d="M 54.890625 33.015625 
L 54.890625 0 
L 45.90625 0 
L 45.90625 32.71875 
Q 45.90625 40.484375 42.875 44.328125 
Q 39.84375 48.1875 33.796875 48.1875 
Q 26.515625 48.1875 22.3125 43.546875 
Q 18.109375 38.921875 18.109375 30.90625 
L 18.109375 0 
L 9.078125 0 
L 9.078125 54.6875 
L 18.109375 54.6875 
L 18.109375 46.1875 
Q 21.34375 51.125 25.703125 53.5625 
Q 30.078125 56 35.796875 56 
Q 45.21875 56 50.046875 50.171875 
Q 54.890625 44.34375 54.890625 33.015625 
z
" id="DejaVuSans-110"/>
      <path d="M 48.78125 52.59375 
L 48.78125 44.1875 
Q 44.96875 46.296875 41.140625 47.34375 
Q 37.3125 48.390625 33.40625 48.390625 
Q 24.65625 48.390625 19.8125 42.84375 
Q 14.984375 37.3125 14.984375 27.296875 
Q 14.984375 17.28125 19.8125 11.734375 
Q 24.65625 6.203125 33.40625 6.203125 
Q 37.3125 6.203125 41.140625 7.25 
Q 44.96875 8.296875 48.78125 10.40625 
L 48.78125 2.09375 
Q 45.015625 0.34375 40.984375 -0.53125 
Q 36.96875 -1.421875 32.421875 -1.421875 
Q 20.0625 -1.421875 12.78125 6.34375 
Q 5.515625 14.109375 5.515625 27.296875 
Q 5.515625 40.671875 12.859375 48.328125 
Q 20.21875 56 33.015625 56 
Q 37.15625 56 41.109375 55.140625 
Q 45.0625 54.296875 48.78125 52.59375 
z
" id="DejaVuSans-99"/>
      <path d="M 56.203125 29.59375 
L 56.203125 25.203125 
L 14.890625 25.203125 
Q 15.484375 15.921875 20.484375 11.0625 
Q 25.484375 6.203125 34.421875 6.203125 
Q 39.59375 6.203125 44.453125 7.46875 
Q 49.3125 8.734375 54.109375 11.28125 
L 54.109375 2.78125 
Q 49.265625 0.734375 44.1875 -0.34375 
Q 39.109375 -1.421875 33.890625 -1.421875 
Q 20.796875 -1.421875 13.15625 6.1875 
Q 5.515625 13.8125 5.515625 26.8125 
Q 5.515625 40.234375 12.765625 48.109375 
Q 20.015625 56 32.328125 56 
Q 43.359375 56 49.78125 48.890625 
Q 56.203125 41.796875 56.203125 29.59375 
z
M 47.21875 32.234375 
Q 47.125 39.59375 43.09375 43.984375 
Q 39.0625 48.390625 32.421875 48.390625 
Q 24.90625 48.390625 20.390625 44.140625 
Q 15.875 39.890625 15.1875 32.171875 
z
" id="DejaVuSans-101"/>
      <path d="M 4.890625 31.390625 
L 31.203125 31.390625 
L 31.203125 23.390625 
L 4.890625 23.390625 
z
" id="DejaVuSans-45"/>
     </defs>
     <g style="fill:#262626;" transform="translate(235.387757 396.966094)scale(0.18 -0.18)">
      <use xlink:href="#DejaVuSans-68"/>
      <use x="77.001953" xlink:href="#DejaVuSans-97"/>
      <use x="138.28125" xlink:href="#DejaVuSans-121"/>
      <use x="197.460938" xlink:href="#DejaVuSans-115"/>
      <use x="249.560547" xlink:href="#DejaVuSans-32"/>
      <use x="281.347656" xlink:href="#DejaVuSans-115"/>
      <use x="333.447266" xlink:href="#DejaVuSans-105"/>
      <use x="361.230469" xlink:href="#DejaVuSans-110"/>
      <use x="424.609375" xlink:href="#DejaVuSans-99"/>
      <use x="479.589844" xlink:href="#DejaVuSans-101"/>
      <use x="541.113281" xlink:href="#DejaVuSans-32"/>
      <use x="572.900391" xlink:href="#DejaVuSans-50"/>
      <use x="636.523438" xlink:href="#DejaVuSans-48"/>
      <use x="700.146484" xlink:href="#DejaVuSans-50"/>
      <use x="763.769531" xlink:href="#DejaVuSans-48"/>
      <use x="827.392578" xlink:href="#DejaVuSans-45"/>
      <use x="863.476562" xlink:href="#DejaVuSans-48"/>
      <use x="927.099609" xlink:href="#DejaVuSans-51"/>
      <use x="990.722656" xlink:href="#DejaVuSans-45"/>
      <use x="1026.806641" xlink:href="#DejaVuSans-48"/>
      <use x="1090.429688" xlink:href="#DejaVuSans-51"/>
     </g>
    </g>
   </g>
   <g id="matplotlib.axis_2">
    <g id="ytick_1">
     <g id="line2d_8">
      <path clip-path="url(#p6ef12b0a35)" d="M 65.116875 332.1543 
L 613.387076 332.1543 
" style="fill:none;stroke:#ffffff;stroke-linecap:round;"/>
     </g>
     <g id="text_9">
      <!-- 0 -->
      <g style="fill:#262626;" transform="translate(45.11875 338.423011)scale(0.165 -0.165)">
       <use xlink:href="#DejaVuSans-48"/>
      </g>
     </g>
    </g>
    <g id="ytick_2">
     <g id="line2d_9">
      <path clip-path="url(#p6ef12b0a35)" d="M 65.116875 270.518648 
L 613.387076 270.518648 
" style="fill:none;stroke:#ffffff;stroke-linecap:round;"/>
     </g>
     <g id="text_10">
      <!-- 2 -->
      <g style="fill:#262626;" transform="translate(45.11875 276.787359)scale(0.165 -0.165)">
       <use xlink:href="#DejaVuSans-50"/>
      </g>
     </g>
    </g>
    <g id="ytick_3">
     <g id="line2d_10">
      <path clip-path="url(#p6ef12b0a35)" d="M 65.116875 208.882997 
L 613.387076 208.882997 
" style="fill:none;stroke:#ffffff;stroke-linecap:round;"/>
     </g>
     <g id="text_11">
      <!-- 4 -->
      <g style="fill:#262626;" transform="translate(45.11875 215.151707)scale(0.165 -0.165)">
       <use xlink:href="#DejaVuSans-52"/>
      </g>
     </g>
    </g>
    <g id="ytick_4">
     <g id="line2d_11">
      <path clip-path="url(#p6ef12b0a35)" d="M 65.116875 147.247345 
L 613.387076 147.247345 
" style="fill:none;stroke:#ffffff;stroke-linecap:round;"/>
     </g>
     <g id="text_12">
      <!-- 6 -->
      <g style="fill:#262626;" transform="translate(45.11875 153.516056)scale(0.165 -0.165)">
       <use xlink:href="#DejaVuSans-54"/>
      </g>
     </g>
    </g>
    <g id="ytick_5">
     <g id="line2d_12">
      <path clip-path="url(#p6ef12b0a35)" d="M 65.116875 85.611693 
L 613.387076 85.611693 
" style="fill:none;stroke:#ffffff;stroke-linecap:round;"/>
     </g>
     <g id="text_13">
      <!-- 8 -->
      <defs>
       <path d="M 31.78125 34.625 
Q 24.75 34.625 20.71875 30.859375 
Q 16.703125 27.09375 16.703125 20.515625 
Q 16.703125 13.921875 20.71875 10.15625 
Q 24.75 6.390625 31.78125 6.390625 
Q 38.8125 6.390625 42.859375 10.171875 
Q 46.921875 13.96875 46.921875 20.515625 
Q 46.921875 27.09375 42.890625 30.859375 
Q 38.875 34.625 31.78125 34.625 
z
M 21.921875 38.8125 
Q 15.578125 40.375 12.03125 44.71875 
Q 8.5 49.078125 8.5 55.328125 
Q 8.5 64.0625 14.71875 69.140625 
Q 20.953125 74.21875 31.78125 74.21875 
Q 42.671875 74.21875 48.875 69.140625 
Q 55.078125 64.0625 55.078125 55.328125 
Q 55.078125 49.078125 51.53125 44.71875 
Q 48 40.375 41.703125 38.8125 
Q 48.828125 37.15625 52.796875 32.3125 
Q 56.78125 27.484375 56.78125 20.515625 
Q 56.78125 9.90625 50.3125 4.234375 
Q 43.84375 -1.421875 31.78125 -1.421875 
Q 19.734375 -1.421875 13.25 4.234375 
Q 6.78125 9.90625 6.78125 20.515625 
Q 6.78125 27.484375 10.78125 32.3125 
Q 14.796875 37.15625 21.921875 38.8125 
z
M 18.3125 54.390625 
Q 18.3125 48.734375 21.84375 45.5625 
Q 25.390625 42.390625 31.78125 42.390625 
Q 38.140625 42.390625 41.71875 45.5625 
Q 45.3125 48.734375 45.3125 54.390625 
Q 45.3125 60.0625 41.71875 63.234375 
Q 38.140625 66.40625 31.78125 66.40625 
Q 25.390625 66.40625 21.84375 63.234375 
Q 18.3125 60.0625 18.3125 54.390625 
z
" id="DejaVuSans-56"/>
      </defs>
      <g style="fill:#262626;" transform="translate(45.11875 91.880404)scale(0.165 -0.165)">
       <use xlink:href="#DejaVuSans-56"/>
      </g>
     </g>
    </g>
    <g id="ytick_6">
     <g id="line2d_13">
      <path clip-path="url(#p6ef12b0a35)" d="M 65.116875 23.976042 
L 613.387076 23.976042 
" style="fill:none;stroke:#ffffff;stroke-linecap:round;"/>
     </g>
     <g id="text_14">
      <!-- 10 -->
      <g style="fill:#262626;" transform="translate(34.620625 30.244753)scale(0.165 -0.165)">
       <use xlink:href="#DejaVuSans-49"/>
       <use x="63.623047" xlink:href="#DejaVuSans-48"/>
      </g>
     </g>
    </g>
    <g id="text_15">
     <!-- Log of daily new cases -->
     <defs>
      <path d="M 9.8125 72.90625 
L 19.671875 72.90625 
L 19.671875 8.296875 
L 55.171875 8.296875 
L 55.171875 0 
L 9.8125 0 
z
" id="DejaVuSans-76"/>
      <path d="M 30.609375 48.390625 
Q 23.390625 48.390625 19.1875 42.75 
Q 14.984375 37.109375 14.984375 27.296875 
Q 14.984375 17.484375 19.15625 11.84375 
Q 23.34375 6.203125 30.609375 6.203125 
Q 37.796875 6.203125 41.984375 11.859375 
Q 46.1875 17.53125 46.1875 27.296875 
Q 46.1875 37.015625 41.984375 42.703125 
Q 37.796875 48.390625 30.609375 48.390625 
z
M 30.609375 56 
Q 42.328125 56 49.015625 48.375 
Q 55.71875 40.765625 55.71875 27.296875 
Q 55.71875 13.875 49.015625 6.21875 
Q 42.328125 -1.421875 30.609375 -1.421875 
Q 18.84375 -1.421875 12.171875 6.21875 
Q 5.515625 13.875 5.515625 27.296875 
Q 5.515625 40.765625 12.171875 48.375 
Q 18.84375 56 30.609375 56 
z
" id="DejaVuSans-111"/>
      <path d="M 45.40625 27.984375 
Q 45.40625 37.75 41.375 43.109375 
Q 37.359375 48.484375 30.078125 48.484375 
Q 22.859375 48.484375 18.828125 43.109375 
Q 14.796875 37.75 14.796875 27.984375 
Q 14.796875 18.265625 18.828125 12.890625 
Q 22.859375 7.515625 30.078125 7.515625 
Q 37.359375 7.515625 41.375 12.890625 
Q 45.40625 18.265625 45.40625 27.984375 
z
M 54.390625 6.78125 
Q 54.390625 -7.171875 48.1875 -13.984375 
Q 42 -20.796875 29.203125 -20.796875 
Q 24.46875 -20.796875 20.265625 -20.09375 
Q 16.0625 -19.390625 12.109375 -17.921875 
L 12.109375 -9.1875 
Q 16.0625 -11.328125 19.921875 -12.34375 
Q 23.78125 -13.375 27.78125 -13.375 
Q 36.625 -13.375 41.015625 -8.765625 
Q 45.40625 -4.15625 45.40625 5.171875 
L 45.40625 9.625 
Q 42.625 4.78125 38.28125 2.390625 
Q 33.9375 0 27.875 0 
Q 17.828125 0 11.671875 7.65625 
Q 5.515625 15.328125 5.515625 27.984375 
Q 5.515625 40.671875 11.671875 48.328125 
Q 17.828125 56 27.875 56 
Q 33.9375 56 38.28125 53.609375 
Q 42.625 51.21875 45.40625 46.390625 
L 45.40625 54.6875 
L 54.390625 54.6875 
z
" id="DejaVuSans-103"/>
      <path d="M 37.109375 75.984375 
L 37.109375 68.5 
L 28.515625 68.5 
Q 23.6875 68.5 21.796875 66.546875 
Q 19.921875 64.59375 19.921875 59.515625 
L 19.921875 54.6875 
L 34.71875 54.6875 
L 34.71875 47.703125 
L 19.921875 47.703125 
L 19.921875 0 
L 10.890625 0 
L 10.890625 47.703125 
L 2.296875 47.703125 
L 2.296875 54.6875 
L 10.890625 54.6875 
L 10.890625 58.5 
Q 10.890625 67.625 15.140625 71.796875 
Q 19.390625 75.984375 28.609375 75.984375 
z
" id="DejaVuSans-102"/>
      <path d="M 45.40625 46.390625 
L 45.40625 75.984375 
L 54.390625 75.984375 
L 54.390625 0 
L 45.40625 0 
L 45.40625 8.203125 
Q 42.578125 3.328125 38.25 0.953125 
Q 33.9375 -1.421875 27.875 -1.421875 
Q 17.96875 -1.421875 11.734375 6.484375 
Q 5.515625 14.40625 5.515625 27.296875 
Q 5.515625 40.1875 11.734375 48.09375 
Q 17.96875 56 27.875 56 
Q 33.9375 56 38.25 53.625 
Q 42.578125 51.265625 45.40625 46.390625 
z
M 14.796875 27.296875 
Q 14.796875 17.390625 18.875 11.75 
Q 22.953125 6.109375 30.078125 6.109375 
Q 37.203125 6.109375 41.296875 11.75 
Q 45.40625 17.390625 45.40625 27.296875 
Q 45.40625 37.203125 41.296875 42.84375 
Q 37.203125 48.484375 30.078125 48.484375 
Q 22.953125 48.484375 18.875 42.84375 
Q 14.796875 37.203125 14.796875 27.296875 
z
" id="DejaVuSans-100"/>
      <path d="M 9.421875 75.984375 
L 18.40625 75.984375 
L 18.40625 0 
L 9.421875 0 
z
" id="DejaVuSans-108"/>
      <path d="M 4.203125 54.6875 
L 13.1875 54.6875 
L 24.421875 12.015625 
L 35.59375 54.6875 
L 46.1875 54.6875 
L 57.421875 12.015625 
L 68.609375 54.6875 
L 77.59375 54.6875 
L 63.28125 0 
L 52.6875 0 
L 40.921875 44.828125 
L 29.109375 0 
L 18.5 0 
z
" id="DejaVuSans-119"/>
     </defs>
     <g style="fill:#262626;" transform="translate(20.877187 279.397031)rotate(-90)scale(0.18 -0.18)">
      <use xlink:href="#DejaVuSans-76"/>
      <use x="55.697266" xlink:href="#DejaVuSans-111"/>
      <use x="116.878906" xlink:href="#DejaVuSans-103"/>
      <use x="180.355469" xlink:href="#DejaVuSans-32"/>
      <use x="212.142578" xlink:href="#DejaVuSans-111"/>
      <use x="273.324219" xlink:href="#DejaVuSans-102"/>
      <use x="308.529297" xlink:href="#DejaVuSans-32"/>
      <use x="340.316406" xlink:href="#DejaVuSans-100"/>
      <use x="403.792969" xlink:href="#DejaVuSans-97"/>
      <use x="465.072266" xlink:href="#DejaVuSans-105"/>
      <use x="492.855469" xlink:href="#DejaVuSans-108"/>
      <use x="520.638672" xlink:href="#DejaVuSans-121"/>
      <use x="579.818359" xlink:href="#DejaVuSans-32"/>
      <use x="611.605469" xlink:href="#DejaVuSans-110"/>
      <use x="674.984375" xlink:href="#DejaVuSans-101"/>
      <use x="736.507812" xlink:href="#DejaVuSans-119"/>
      <use x="818.294922" xlink:href="#DejaVuSans-32"/>
      <use x="850.082031" xlink:href="#DejaVuSans-99"/>
      <use x="905.0625" xlink:href="#DejaVuSans-97"/>
      <use x="966.341797" xlink:href="#DejaVuSans-115"/>
      <use x="1018.441406" xlink:href="#DejaVuSans-101"/>
      <use x="1079.964844" xlink:href="#DejaVuSans-115"/>
     </g>
    </g>
   </g>
   <g id="PathCollection_1">
    <defs>
     <path d="M 0 1.936492 
C 0.513564 1.936492 1.006162 1.732451 1.369306 1.369306 
C 1.732451 1.006162 1.936492 0.513564 1.936492 0 
C 1.936492 -0.513564 1.732451 -1.006162 1.369306 -1.369306 
C 1.006162 -1.732451 0.513564 -1.936492 0 -1.936492 
C -0.513564 -1.936492 -1.006162 -1.732451 -1.369306 -1.369306 
C -1.732451 -1.006162 -1.936492 -0.513564 -1.936492 0 
C -1.936492 0.513564 -1.732451 1.006162 -1.369306 1.369306 
C -1.006162 1.732451 -0.513564 1.936492 0 1.936492 
z
" id="m70e7a196cf" style="stroke:#4c72b0;"/>
    </defs>
    <g clip-path="url(#p6ef12b0a35)">
     <use style="fill:#4c72b0;stroke:#4c72b0;" x="90.07525" xlink:href="#m70e7a196cf" y="258.256379"/>
     <use style="fill:#4c72b0;stroke:#4c72b0;" x="98.798942" xlink:href="#m70e7a196cf" y="222.5862"/>
     <use style="fill:#4c72b0;stroke:#4c72b0;" x="107.522634" xlink:href="#m70e7a196cf" y="227.33679"/>
     <use style="fill:#4c72b0;stroke:#4c72b0;" x="116.246326" xlink:href="#m70e7a196cf" y="212.8523"/>
     <use style="fill:#4c72b0;stroke:#4c72b0;" x="124.970017" xlink:href="#m70e7a196cf" y="216.242287"/>
     <use style="fill:#4c72b0;stroke:#4c72b0;" x="133.693709" xlink:href="#m70e7a196cf" y="202.574808"/>
     <use style="fill:#4c72b0;stroke:#4c72b0;" x="142.417401" xlink:href="#m70e7a196cf" y="212.8523"/>
     <use style="fill:#4c72b0;stroke:#4c72b0;" x="151.141092" xlink:href="#m70e7a196cf" y="204.964993"/>
     <use style="fill:#4c72b0;stroke:#4c72b0;" x="159.864784" xlink:href="#m70e7a196cf" y="199.098701"/>
     <use style="fill:#4c72b0;stroke:#4c72b0;" x="168.588476" xlink:href="#m70e7a196cf" y="173.699408"/>
     <use style="fill:#4c72b0;stroke:#4c72b0;" x="177.312168" xlink:href="#m70e7a196cf" y="173.519717"/>
     <use style="fill:#4c72b0;stroke:#4c72b0;" x="186.035859" xlink:href="#m70e7a196cf" y="152.338119"/>
     <use style="fill:#4c72b0;stroke:#4c72b0;" x="194.759551" xlink:href="#m70e7a196cf" y="332.1543"/>
     <use style="fill:#4c72b0;stroke:#4c72b0;" x="203.483243" xlink:href="#m70e7a196cf" y="147.051548"/>
     <use style="fill:#4c72b0;stroke:#4c72b0;" x="212.206935" xlink:href="#m70e7a196cf" y="146.82467"/>
     <use style="fill:#4c72b0;stroke:#4c72b0;" x="220.930626" xlink:href="#m70e7a196cf" y="131.067072"/>
     <use style="fill:#4c72b0;stroke:#4c72b0;" x="229.654318" xlink:href="#m70e7a196cf" y="199.512367"/>
     <use style="fill:#4c72b0;stroke:#4c72b0;" x="238.37801" xlink:href="#m70e7a196cf" y="111.234248"/>
     <use style="fill:#4c72b0;stroke:#4c72b0;" x="247.101702" xlink:href="#m70e7a196cf" y="117.680761"/>
     <use style="fill:#4c72b0;stroke:#4c72b0;" x="255.825393" xlink:href="#m70e7a196cf" y="131.248351"/>
     <use style="fill:#4c72b0;stroke:#4c72b0;" x="264.549085" xlink:href="#m70e7a196cf" y="119.863466"/>
     <use style="fill:#4c72b0;stroke:#4c72b0;" x="273.272777" xlink:href="#m70e7a196cf" y="108.077627"/>
     <use style="fill:#4c72b0;stroke:#4c72b0;" x="281.996468" xlink:href="#m70e7a196cf" y="107.27382"/>
     <use style="fill:#4c72b0;stroke:#4c72b0;" x="290.72016" xlink:href="#m70e7a196cf" y="95.368509"/>
     <use style="fill:#4c72b0;stroke:#4c72b0;" x="299.443852" xlink:href="#m70e7a196cf" y="86.111532"/>
     <use style="fill:#4c72b0;stroke:#4c72b0;" x="308.167544" xlink:href="#m70e7a196cf" y="90.219175"/>
     <use style="fill:#4c72b0;stroke:#4c72b0;" x="316.891235" xlink:href="#m70e7a196cf" y="91.431226"/>
     <use style="fill:#4c72b0;stroke:#4c72b0;" x="325.614927" xlink:href="#m70e7a196cf" y="88.972165"/>
     <use style="fill:#4c72b0;stroke:#4c72b0;" x="334.338619" xlink:href="#m70e7a196cf" y="85.129165"/>
    </g>
   </g>
   <g id="PathCollection_2">
    <defs>
     <path d="M 0 1.936492 
C 0.513564 1.936492 1.006162 1.732451 1.369306 1.369306 
C 1.732451 1.006162 1.936492 0.513564 1.936492 0 
C 1.936492 -0.513564 1.732451 -1.006162 1.369306 -1.369306 
C 1.006162 -1.732451 0.513564 -1.936492 0 -1.936492 
C -0.513564 -1.936492 -1.006162 -1.732451 -1.369306 -1.369306 
C -1.732451 -1.006162 -1.936492 -0.513564 -1.936492 0 
C -1.936492 0.513564 -1.732451 1.006162 -1.369306 1.369306 
C -1.006162 1.732451 -0.513564 1.936492 0 1.936492 
z
" id="m6b0e4fd099" style="stroke:#ff0000;"/>
    </defs>
    <g clip-path="url(#p6ef12b0a35)">
     <use style="fill:#ff0000;stroke:#ff0000;" x="343.062311" xlink:href="#m6b0e4fd099" y="73.724751"/>
     <use style="fill:#ff0000;stroke:#ff0000;" x="351.786002" xlink:href="#m6b0e4fd099" y="74.263679"/>
     <use style="fill:#ff0000;stroke:#ff0000;" x="360.509694" xlink:href="#m6b0e4fd099" y="72.810511"/>
     <use style="fill:#ff0000;stroke:#ff0000;" x="369.233386" xlink:href="#m6b0e4fd099" y="78.227942"/>
     <use style="fill:#ff0000;stroke:#ff0000;" x="377.957078" xlink:href="#m6b0e4fd099" y="64.265467"/>
     <use style="fill:#ff0000;stroke:#ff0000;" x="386.680769" xlink:href="#m6b0e4fd099" y="77.78371"/>
     <use style="fill:#ff0000;stroke:#ff0000;" x="395.404461" xlink:href="#m6b0e4fd099" y="79.203226"/>
     <use style="fill:#ff0000;stroke:#ff0000;" x="404.128153" xlink:href="#m6b0e4fd099" y="66.595901"/>
     <use style="fill:#ff0000;stroke:#ff0000;" x="412.851844" xlink:href="#m6b0e4fd099" y="73.626471"/>
     <use style="fill:#ff0000;stroke:#ff0000;" x="421.575536" xlink:href="#m6b0e4fd099" y="52.48671"/>
     <use style="fill:#ff0000;stroke:#ff0000;" x="430.299228" xlink:href="#m6b0e4fd099" y="68.057974"/>
     <use style="fill:#ff0000;stroke:#ff0000;" x="439.02292" xlink:href="#m6b0e4fd099" y="67.691684"/>
     <use style="fill:#ff0000;stroke:#ff0000;" x="447.746611" xlink:href="#m6b0e4fd099" y="73.865648"/>
     <use style="fill:#ff0000;stroke:#ff0000;" x="456.470303" xlink:href="#m6b0e4fd099" y="68.022912"/>
     <use style="fill:#ff0000;stroke:#ff0000;" x="465.193995" xlink:href="#m6b0e4fd099" y="71.989027"/>
     <use style="fill:#ff0000;stroke:#ff0000;" x="473.917687" xlink:href="#m6b0e4fd099" y="71.829967"/>
     <use style="fill:#ff0000;stroke:#ff0000;" x="482.641378" xlink:href="#m6b0e4fd099" y="66.048598"/>
     <use style="fill:#ff0000;stroke:#ff0000;" x="491.36507" xlink:href="#m6b0e4fd099" y="66.484542"/>
     <use style="fill:#ff0000;stroke:#ff0000;" x="500.088762" xlink:href="#m6b0e4fd099" y="64.792285"/>
     <use style="fill:#ff0000;stroke:#ff0000;" x="508.812453" xlink:href="#m6b0e4fd099" y="71.684868"/>
     <use style="fill:#ff0000;stroke:#ff0000;" x="517.536145" xlink:href="#m6b0e4fd099" y="74.206486"/>
     <use style="fill:#ff0000;stroke:#ff0000;" x="526.259837" xlink:href="#m6b0e4fd099" y="73.153642"/>
     <use style="fill:#ff0000;stroke:#ff0000;" x="534.983529" xlink:href="#m6b0e4fd099" y="72.189027"/>
     <use style="fill:#ff0000;stroke:#ff0000;" x="543.70722" xlink:href="#m6b0e4fd099" y="67.335417"/>
     <use style="fill:#ff0000;stroke:#ff0000;" x="552.430912" xlink:href="#m6b0e4fd099" y="70.113669"/>
     <use style="fill:#ff0000;stroke:#ff0000;" x="561.154604" xlink:href="#m6b0e4fd099" y="73.139828"/>
     <use style="fill:#ff0000;stroke:#ff0000;" x="569.878296" xlink:href="#m6b0e4fd099" y="74.242224"/>
     <use style="fill:#ff0000;stroke:#ff0000;" x="578.601987" xlink:href="#m6b0e4fd099" y="76.534304"/>
     <use style="fill:#ff0000;stroke:#ff0000;" x="587.325679" xlink:href="#m6b0e4fd099" y="75.856479"/>
    </g>
   </g>
   <g id="PolyCollection_1">
    <defs>
     <path d="M 90.07525 -212.692449 
L 90.07525 -121.718333 
L 98.798942 -130.162323 
L 107.522634 -134.242197 
L 116.246326 -139.919216 
L 124.970017 -144.818616 
L 133.693709 -151.540589 
L 142.417401 -155.951627 
L 151.141092 -162.793343 
L 159.864784 -168.420392 
L 168.588476 -173.591548 
L 177.312168 -181.602544 
L 186.035859 -188.454274 
L 194.759551 -192.941557 
L 203.483243 -198.045689 
L 212.206935 -202.639395 
L 220.930626 -210.367466 
L 229.654318 -215.632877 
L 238.37801 -223.043035 
L 247.101702 -228.621538 
L 255.825393 -236.242791 
L 264.549085 -240.85405 
L 273.272777 -245.798961 
L 281.996468 -251.646855 
L 290.72016 -257.358349 
L 299.443852 -265.415796 
L 308.167544 -269.521089 
L 316.891235 -274.318755 
L 325.614927 -280.237758 
L 334.338619 -285.53178 
L 343.062311 -289.528916 
L 351.786002 -292.135001 
L 360.509694 -292.586185 
L 369.233386 -292.218234 
L 377.957078 -292.331989 
L 386.680769 -293.993959 
L 395.404461 -292.30808 
L 404.128153 -291.63556 
L 412.851844 -293.82911 
L 421.575536 -293.738896 
L 430.299228 -292.118852 
L 439.02292 -291.401643 
L 447.746611 -291.656 
L 456.470303 -293.123363 
L 465.193995 -294.883056 
L 473.917687 -293.278602 
L 482.641378 -294.347787 
L 491.36507 -293.269418 
L 500.088762 -292.427713 
L 508.812453 -294.14526 
L 517.536145 -293.962629 
L 526.259837 -292.412298 
L 534.983529 -291.913223 
L 543.70722 -291.350078 
L 552.430912 -292.251519 
L 561.154604 -292.152033 
L 569.878296 -292.078073 
L 578.601987 -292.421453 
L 587.325679 -291.811416 
L 587.325679 -382.018661 
L 587.325679 -382.018661 
L 578.601987 -380.322261 
L 569.878296 -381.727052 
L 561.154604 -381.652372 
L 552.430912 -382.179896 
L 543.70722 -382.211196 
L 534.983529 -380.380953 
L 526.259837 -379.625773 
L 517.536145 -379.123142 
L 508.812453 -381.513885 
L 500.088762 -379.199703 
L 491.36507 -379.697455 
L 482.641378 -380.13049 
L 473.917687 -381.11121 
L 465.193995 -380.109241 
L 456.470303 -379.571489 
L 447.746611 -378.940688 
L 439.02292 -380.473532 
L 430.299228 -379.390269 
L 421.575536 -381.37678 
L 412.851844 -380.163113 
L 404.128153 -383.095605 
L 395.404461 -382.137486 
L 386.680769 -385.226804 
L 377.957078 -382.462247 
L 369.233386 -384.432535 
L 360.509694 -382.455928 
L 351.786002 -380.671269 
L 343.062311 -378.467388 
L 334.338619 -375.247225 
L 325.614927 -369.74612 
L 316.891235 -364.424531 
L 308.167544 -360.324866 
L 299.443852 -357.498002 
L 290.72016 -349.055471 
L 281.996468 -341.511837 
L 273.272777 -335.953921 
L 264.549085 -329.05214 
L 255.825393 -325.299427 
L 247.101702 -317.406373 
L 238.37801 -311.832645 
L 229.654318 -301.733537 
L 220.930626 -297.514343 
L 212.206935 -291.740247 
L 203.483243 -284.116041 
L 194.759551 -279.224091 
L 186.035859 -275.270349 
L 177.312168 -268.555445 
L 168.588476 -261.865596 
L 159.864784 -255.429384 
L 151.141092 -250.466266 
L 142.417401 -245.720371 
L 133.693709 -239.804777 
L 124.970017 -233.976589 
L 116.246326 -229.533266 
L 107.522634 -225.378921 
L 98.798942 -216.060518 
L 90.07525 -212.692449 
z
" id="m91a585e12b" style="stroke:#f08080;stroke-opacity:0.25;"/>
    </defs>
    <g clip-path="url(#p6ef12b0a35)">
     <use style="fill:#f08080;fill-opacity:0.25;stroke:#f08080;stroke-opacity:0.25;" x="0" xlink:href="#m91a585e12b" y="407.909531"/>
    </g>
   </g>
   <g id="PolyCollection_2">
    <defs>
     <path d="M 386.42486 -60.089531 
L 260.950526 -60.089531 
L 260.950526 -400.709531 
L 386.42486 -400.709531 
L 386.42486 -400.709531 
L 386.42486 -60.089531 
z
" id="m4b477a6e17" style="stroke:#008080;stroke-opacity:0.25;"/>
    </defs>
    <g clip-path="url(#p6ef12b0a35)">
     <use style="fill:#008080;fill-opacity:0.25;stroke:#008080;stroke-opacity:0.25;" x="0" xlink:href="#m4b477a6e17" y="407.909531"/>
    </g>
   </g>
   <g id="line2d_14">
    <path clip-path="url(#p6ef12b0a35)" d="M 90.07525 240.951301 
L 98.798942 235.267161 
L 107.522634 228.760494 
L 116.246326 223.605421 
L 124.970017 217.886322 
L 133.693709 212.652697 
L 142.417401 206.64423 
L 151.141092 200.260935 
L 159.864784 195.33573 
L 168.588476 189.45849 
L 177.312168 183.12269 
L 186.035859 176.431768 
L 194.759551 171.683081 
L 203.483243 166.094334 
L 212.206935 160.18619 
L 220.930626 154.114858 
L 229.654318 148.895942 
L 238.37801 140.972103 
L 247.101702 135.437537 
L 255.825393 129.305911 
L 264.549085 124.047921 
L 273.272777 117.838719 
L 281.996468 111.684785 
L 290.72016 104.824546 
L 299.443852 97.739723 
L 308.167544 93.189992 
L 316.891235 87.610342 
L 325.614927 83.096718 
L 334.338619 77.953938 
L 343.062311 74.794495 
L 351.786002 72.065265 
L 360.509694 70.666116 
L 369.233386 70.096799 
L 377.957078 70.046307 
L 386.680769 70.054419 
L 395.404461 70.248747 
L 404.128153 70.334654 
L 412.851844 70.471201 
L 421.575536 70.326102 
L 430.299228 71.741179 
L 439.02292 71.619769 
L 447.746611 71.797638 
L 456.470303 71.211862 
L 465.193995 71.36525 
L 473.917687 71.356991 
L 482.641378 70.355786 
L 491.36507 71.430261 
L 500.088762 72.063678 
L 508.812453 70.954316 
L 517.536145 71.278784 
L 526.259837 71.655448 
L 534.983529 71.387028 
L 543.70722 70.80763 
L 552.430912 70.5122 
L 561.154604 70.816271 
L 569.878296 70.399518 
L 578.601987 70.773684 
L 587.325679 70.959195 
" style="fill:none;stroke:#008000;stroke-linecap:round;stroke-width:1.5;"/>
   </g>
   <g id="line2d_15">
    <path clip-path="url(#p6ef12b0a35)" d="M 334.338619 347.82 
L 334.338619 7.2 
" style="fill:none;stroke:#000000;stroke-dasharray:6.66,2.88;stroke-dashoffset:0;stroke-width:1.8;"/>
   </g>
   <g id="patch_3">
    <path d="M 65.116875 347.82 
L 65.116875 7.2 
" style="fill:none;stroke:#ffffff;stroke-linecap:square;stroke-linejoin:miter;stroke-width:1.25;"/>
   </g>
   <g id="patch_4">
    <path d="M 613.387076 347.82 
L 613.387076 7.2 
" style="fill:none;stroke:#ffffff;stroke-linecap:square;stroke-linejoin:miter;stroke-width:1.25;"/>
   </g>
   <g id="patch_5">
    <path d="M 65.116875 347.82 
L 613.387076 347.82 
" style="fill:none;stroke:#ffffff;stroke-linecap:square;stroke-linejoin:miter;stroke-width:1.25;"/>
   </g>
   <g id="patch_6">
    <path d="M 65.116875 7.2 
L 613.387076 7.2 
" style="fill:none;stroke:#ffffff;stroke-linecap:square;stroke-linejoin:miter;stroke-width:1.25;"/>
   </g>
   <g id="legend_1">
    <g id="patch_7">
     <path d="M 364.719186 339.57 
L 601.837076 339.57 
Q 605.137076 339.57 605.137076 336.27 
L 605.137076 174.130172 
Q 605.137076 170.830172 601.837076 170.830172 
L 364.719186 170.830172 
Q 361.419186 170.830172 361.419186 174.130172 
L 361.419186 336.27 
Q 361.419186 339.57 364.719186 339.57 
z
" style="fill:#eaeaf2;opacity:0.8;stroke:#cccccc;stroke-linejoin:miter;"/>
    </g>
    <g id="line2d_16">
     <path d="M 368.019186 184.192594 
L 401.019186 184.192594 
" style="fill:none;stroke:#008000;stroke-linecap:round;stroke-width:1.5;"/>
    </g>
    <g id="line2d_17"/>
    <g id="text_16">
     <!-- Mean -->
     <defs>
      <path d="M 9.8125 72.90625 
L 24.515625 72.90625 
L 43.109375 23.296875 
L 61.8125 72.90625 
L 76.515625 72.90625 
L 76.515625 0 
L 66.890625 0 
L 66.890625 64.015625 
L 48.09375 14.015625 
L 38.1875 14.015625 
L 19.390625 64.015625 
L 19.390625 0 
L 9.8125 0 
z
" id="DejaVuSans-77"/>
     </defs>
     <g style="fill:#262626;" transform="translate(414.219186 189.967594)scale(0.165 -0.165)">
      <use xlink:href="#DejaVuSans-77"/>
      <use x="86.279297" xlink:href="#DejaVuSans-101"/>
      <use x="147.802734" xlink:href="#DejaVuSans-97"/>
      <use x="209.082031" xlink:href="#DejaVuSans-110"/>
     </g>
    </g>
    <g id="line2d_18">
     <path d="M 368.019186 208.4115 
L 401.019186 208.4115 
" style="fill:none;stroke:#000000;stroke-dasharray:6.66,2.88;stroke-dashoffset:0;stroke-width:1.8;"/>
    </g>
    <g id="line2d_19"/>
    <g id="text_17">
     <!-- Day of Change -->
     <defs>
      <path d="M 64.40625 67.28125 
L 64.40625 56.890625 
Q 59.421875 61.53125 53.78125 63.8125 
Q 48.140625 66.109375 41.796875 66.109375 
Q 29.296875 66.109375 22.65625 58.46875 
Q 16.015625 50.828125 16.015625 36.375 
Q 16.015625 21.96875 22.65625 14.328125 
Q 29.296875 6.6875 41.796875 6.6875 
Q 48.140625 6.6875 53.78125 8.984375 
Q 59.421875 11.28125 64.40625 15.921875 
L 64.40625 5.609375 
Q 59.234375 2.09375 53.4375 0.328125 
Q 47.65625 -1.421875 41.21875 -1.421875 
Q 24.65625 -1.421875 15.125 8.703125 
Q 5.609375 18.84375 5.609375 36.375 
Q 5.609375 53.953125 15.125 64.078125 
Q 24.65625 74.21875 41.21875 74.21875 
Q 47.75 74.21875 53.53125 72.484375 
Q 59.328125 70.75 64.40625 67.28125 
z
" id="DejaVuSans-67"/>
      <path d="M 54.890625 33.015625 
L 54.890625 0 
L 45.90625 0 
L 45.90625 32.71875 
Q 45.90625 40.484375 42.875 44.328125 
Q 39.84375 48.1875 33.796875 48.1875 
Q 26.515625 48.1875 22.3125 43.546875 
Q 18.109375 38.921875 18.109375 30.90625 
L 18.109375 0 
L 9.078125 0 
L 9.078125 75.984375 
L 18.109375 75.984375 
L 18.109375 46.1875 
Q 21.34375 51.125 25.703125 53.5625 
Q 30.078125 56 35.796875 56 
Q 45.21875 56 50.046875 50.171875 
Q 54.890625 44.34375 54.890625 33.015625 
z
" id="DejaVuSans-104"/>
     </defs>
     <g style="fill:#262626;" transform="translate(414.219186 214.1865)scale(0.165 -0.165)">
      <use xlink:href="#DejaVuSans-68"/>
      <use x="77.001953" xlink:href="#DejaVuSans-97"/>
      <use x="138.28125" xlink:href="#DejaVuSans-121"/>
      <use x="197.460938" xlink:href="#DejaVuSans-32"/>
      <use x="229.248047" xlink:href="#DejaVuSans-111"/>
      <use x="290.429688" xlink:href="#DejaVuSans-102"/>
      <use x="325.634766" xlink:href="#DejaVuSans-32"/>
      <use x="357.421875" xlink:href="#DejaVuSans-67"/>
      <use x="427.246094" xlink:href="#DejaVuSans-104"/>
      <use x="490.625" xlink:href="#DejaVuSans-97"/>
      <use x="551.904297" xlink:href="#DejaVuSans-110"/>
      <use x="615.283203" xlink:href="#DejaVuSans-103"/>
      <use x="678.759766" xlink:href="#DejaVuSans-101"/>
     </g>
    </g>
    <g id="PathCollection_3">
     <g>
      <use style="fill:#4c72b0;stroke:#4c72b0;" x="384.519186" xlink:href="#m70e7a196cf" y="234.074156"/>
     </g>
    </g>
    <g id="text_18">
     <!-- Observed -->
     <defs>
      <path d="M 39.40625 66.21875 
Q 28.65625 66.21875 22.328125 58.203125 
Q 16.015625 50.203125 16.015625 36.375 
Q 16.015625 22.609375 22.328125 14.59375 
Q 28.65625 6.59375 39.40625 6.59375 
Q 50.140625 6.59375 56.421875 14.59375 
Q 62.703125 22.609375 62.703125 36.375 
Q 62.703125 50.203125 56.421875 58.203125 
Q 50.140625 66.21875 39.40625 66.21875 
z
M 39.40625 74.21875 
Q 54.734375 74.21875 63.90625 63.9375 
Q 73.09375 53.65625 73.09375 36.375 
Q 73.09375 19.140625 63.90625 8.859375 
Q 54.734375 -1.421875 39.40625 -1.421875 
Q 24.03125 -1.421875 14.8125 8.828125 
Q 5.609375 19.09375 5.609375 36.375 
Q 5.609375 53.65625 14.8125 63.9375 
Q 24.03125 74.21875 39.40625 74.21875 
z
" id="DejaVuSans-79"/>
      <path d="M 48.6875 27.296875 
Q 48.6875 37.203125 44.609375 42.84375 
Q 40.53125 48.484375 33.40625 48.484375 
Q 26.265625 48.484375 22.1875 42.84375 
Q 18.109375 37.203125 18.109375 27.296875 
Q 18.109375 17.390625 22.1875 11.75 
Q 26.265625 6.109375 33.40625 6.109375 
Q 40.53125 6.109375 44.609375 11.75 
Q 48.6875 17.390625 48.6875 27.296875 
z
M 18.109375 46.390625 
Q 20.953125 51.265625 25.265625 53.625 
Q 29.59375 56 35.59375 56 
Q 45.5625 56 51.78125 48.09375 
Q 58.015625 40.1875 58.015625 27.296875 
Q 58.015625 14.40625 51.78125 6.484375 
Q 45.5625 -1.421875 35.59375 -1.421875 
Q 29.59375 -1.421875 25.265625 0.953125 
Q 20.953125 3.328125 18.109375 8.203125 
L 18.109375 0 
L 9.078125 0 
L 9.078125 75.984375 
L 18.109375 75.984375 
z
" id="DejaVuSans-98"/>
      <path d="M 41.109375 46.296875 
Q 39.59375 47.171875 37.8125 47.578125 
Q 36.03125 48 33.890625 48 
Q 26.265625 48 22.1875 43.046875 
Q 18.109375 38.09375 18.109375 28.8125 
L 18.109375 0 
L 9.078125 0 
L 9.078125 54.6875 
L 18.109375 54.6875 
L 18.109375 46.1875 
Q 20.953125 51.171875 25.484375 53.578125 
Q 30.03125 56 36.53125 56 
Q 37.453125 56 38.578125 55.875 
Q 39.703125 55.765625 41.0625 55.515625 
z
" id="DejaVuSans-114"/>
      <path d="M 2.984375 54.6875 
L 12.5 54.6875 
L 29.59375 8.796875 
L 46.6875 54.6875 
L 56.203125 54.6875 
L 35.6875 0 
L 23.484375 0 
z
" id="DejaVuSans-118"/>
     </defs>
     <g style="fill:#262626;" transform="translate(414.219186 238.405406)scale(0.165 -0.165)">
      <use xlink:href="#DejaVuSans-79"/>
      <use x="78.710938" xlink:href="#DejaVuSans-98"/>
      <use x="142.1875" xlink:href="#DejaVuSans-115"/>
      <use x="194.287109" xlink:href="#DejaVuSans-101"/>
      <use x="255.810547" xlink:href="#DejaVuSans-114"/>
      <use x="296.923828" xlink:href="#DejaVuSans-118"/>
      <use x="356.103516" xlink:href="#DejaVuSans-101"/>
      <use x="417.626953" xlink:href="#DejaVuSans-100"/>
     </g>
    </g>
    <g id="PathCollection_4">
     <g>
      <use style="fill:#ff0000;stroke:#ff0000;" x="384.519186" xlink:href="#m6b0e4fd099" y="258.293062"/>
     </g>
    </g>
    <g id="text_19">
     <!-- Observed -->
     <g style="fill:#262626;" transform="translate(414.219186 262.624312)scale(0.165 -0.165)">
      <use xlink:href="#DejaVuSans-79"/>
      <use x="78.710938" xlink:href="#DejaVuSans-98"/>
      <use x="142.1875" xlink:href="#DejaVuSans-115"/>
      <use x="194.287109" xlink:href="#DejaVuSans-101"/>
      <use x="255.810547" xlink:href="#DejaVuSans-114"/>
      <use x="296.923828" xlink:href="#DejaVuSans-118"/>
      <use x="356.103516" xlink:href="#DejaVuSans-101"/>
      <use x="417.626953" xlink:href="#DejaVuSans-100"/>
     </g>
    </g>
    <g id="patch_8">
     <path d="M 368.019186 286.843219 
L 401.019186 286.843219 
L 401.019186 275.293219 
L 368.019186 275.293219 
z
" style="fill:#f08080;opacity:0.25;stroke:#f08080;stroke-linejoin:miter;"/>
    </g>
    <g id="text_20">
     <!-- 90% Credible Interval -->
     <defs>
      <path d="M 10.984375 1.515625 
L 10.984375 10.5 
Q 14.703125 8.734375 18.5 7.8125 
Q 22.3125 6.890625 25.984375 6.890625 
Q 35.75 6.890625 40.890625 13.453125 
Q 46.046875 20.015625 46.78125 33.40625 
Q 43.953125 29.203125 39.59375 26.953125 
Q 35.25 24.703125 29.984375 24.703125 
Q 19.046875 24.703125 12.671875 31.3125 
Q 6.296875 37.9375 6.296875 49.421875 
Q 6.296875 60.640625 12.9375 67.421875 
Q 19.578125 74.21875 30.609375 74.21875 
Q 43.265625 74.21875 49.921875 64.515625 
Q 56.59375 54.828125 56.59375 36.375 
Q 56.59375 19.140625 48.40625 8.859375 
Q 40.234375 -1.421875 26.421875 -1.421875 
Q 22.703125 -1.421875 18.890625 -0.6875 
Q 15.09375 0.046875 10.984375 1.515625 
z
M 30.609375 32.421875 
Q 37.25 32.421875 41.125 36.953125 
Q 45.015625 41.5 45.015625 49.421875 
Q 45.015625 57.28125 41.125 61.84375 
Q 37.25 66.40625 30.609375 66.40625 
Q 23.96875 66.40625 20.09375 61.84375 
Q 16.21875 57.28125 16.21875 49.421875 
Q 16.21875 41.5 20.09375 36.953125 
Q 23.96875 32.421875 30.609375 32.421875 
z
" id="DejaVuSans-57"/>
      <path d="M 72.703125 32.078125 
Q 68.453125 32.078125 66.03125 28.46875 
Q 63.625 24.859375 63.625 18.40625 
Q 63.625 12.0625 66.03125 8.421875 
Q 68.453125 4.78125 72.703125 4.78125 
Q 76.859375 4.78125 79.265625 8.421875 
Q 81.6875 12.0625 81.6875 18.40625 
Q 81.6875 24.8125 79.265625 28.4375 
Q 76.859375 32.078125 72.703125 32.078125 
z
M 72.703125 38.28125 
Q 80.421875 38.28125 84.953125 32.90625 
Q 89.5 27.546875 89.5 18.40625 
Q 89.5 9.28125 84.9375 3.921875 
Q 80.375 -1.421875 72.703125 -1.421875 
Q 64.890625 -1.421875 60.34375 3.921875 
Q 55.8125 9.28125 55.8125 18.40625 
Q 55.8125 27.59375 60.375 32.9375 
Q 64.9375 38.28125 72.703125 38.28125 
z
M 22.3125 68.015625 
Q 18.109375 68.015625 15.6875 64.375 
Q 13.28125 60.75 13.28125 54.390625 
Q 13.28125 47.953125 15.671875 44.328125 
Q 18.0625 40.71875 22.3125 40.71875 
Q 26.5625 40.71875 28.96875 44.328125 
Q 31.390625 47.953125 31.390625 54.390625 
Q 31.390625 60.6875 28.953125 64.34375 
Q 26.515625 68.015625 22.3125 68.015625 
z
M 66.40625 74.21875 
L 74.21875 74.21875 
L 28.609375 -1.421875 
L 20.796875 -1.421875 
z
M 22.3125 74.21875 
Q 30.03125 74.21875 34.609375 68.875 
Q 39.203125 63.53125 39.203125 54.390625 
Q 39.203125 45.171875 34.640625 39.84375 
Q 30.078125 34.515625 22.3125 34.515625 
Q 14.546875 34.515625 10.03125 39.859375 
Q 5.515625 45.21875 5.515625 54.390625 
Q 5.515625 63.484375 10.046875 68.84375 
Q 14.59375 74.21875 22.3125 74.21875 
z
" id="DejaVuSans-37"/>
      <path d="M 9.8125 72.90625 
L 19.671875 72.90625 
L 19.671875 0 
L 9.8125 0 
z
" id="DejaVuSans-73"/>
      <path d="M 18.3125 70.21875 
L 18.3125 54.6875 
L 36.8125 54.6875 
L 36.8125 47.703125 
L 18.3125 47.703125 
L 18.3125 18.015625 
Q 18.3125 11.328125 20.140625 9.421875 
Q 21.96875 7.515625 27.59375 7.515625 
L 36.8125 7.515625 
L 36.8125 0 
L 27.59375 0 
Q 17.1875 0 13.234375 3.875 
Q 9.28125 7.765625 9.28125 18.015625 
L 9.28125 47.703125 
L 2.6875 47.703125 
L 2.6875 54.6875 
L 9.28125 54.6875 
L 9.28125 70.21875 
z
" id="DejaVuSans-116"/>
     </defs>
     <g style="fill:#262626;" transform="translate(414.219186 286.843219)scale(0.165 -0.165)">
      <use xlink:href="#DejaVuSans-57"/>
      <use x="63.623047" xlink:href="#DejaVuSans-48"/>
      <use x="127.246094" xlink:href="#DejaVuSans-37"/>
      <use x="222.265625" xlink:href="#DejaVuSans-32"/>
      <use x="254.052734" xlink:href="#DejaVuSans-67"/>
      <use x="323.876953" xlink:href="#DejaVuSans-114"/>
      <use x="364.958984" xlink:href="#DejaVuSans-101"/>
      <use x="426.482422" xlink:href="#DejaVuSans-100"/>
      <use x="489.958984" xlink:href="#DejaVuSans-105"/>
      <use x="517.742188" xlink:href="#DejaVuSans-98"/>
      <use x="581.21875" xlink:href="#DejaVuSans-108"/>
      <use x="609.001953" xlink:href="#DejaVuSans-101"/>
      <use x="670.525391" xlink:href="#DejaVuSans-32"/>
      <use x="702.3125" xlink:href="#DejaVuSans-73"/>
      <use x="731.804688" xlink:href="#DejaVuSans-110"/>
      <use x="795.183594" xlink:href="#DejaVuSans-116"/>
      <use x="834.392578" xlink:href="#DejaVuSans-101"/>
      <use x="895.916016" xlink:href="#DejaVuSans-114"/>
      <use x="937.029297" xlink:href="#DejaVuSans-118"/>
      <use x="996.208984" xlink:href="#DejaVuSans-97"/>
      <use x="1057.488281" xlink:href="#DejaVuSans-108"/>
     </g>
    </g>
    <g id="patch_9">
     <path d="M 368.019186 322.016062 
L 401.019186 322.016062 
L 401.019186 310.466062 
L 368.019186 310.466062 
z
" style="fill:#008080;opacity:0.25;stroke:#008080;stroke-linejoin:miter;"/>
    </g>
    <g id="text_21">
     <!-- 90% Credible Interval  -->
     <g style="fill:#262626;" transform="translate(414.219186 311.062125)scale(0.165 -0.165)">
      <use xlink:href="#DejaVuSans-57"/>
      <use x="63.623047" xlink:href="#DejaVuSans-48"/>
      <use x="127.246094" xlink:href="#DejaVuSans-37"/>
      <use x="222.265625" xlink:href="#DejaVuSans-32"/>
      <use x="254.052734" xlink:href="#DejaVuSans-67"/>
      <use x="323.876953" xlink:href="#DejaVuSans-114"/>
      <use x="364.958984" xlink:href="#DejaVuSans-101"/>
      <use x="426.482422" xlink:href="#DejaVuSans-100"/>
      <use x="489.958984" xlink:href="#DejaVuSans-105"/>
      <use x="517.742188" xlink:href="#DejaVuSans-98"/>
      <use x="581.21875" xlink:href="#DejaVuSans-108"/>
      <use x="609.001953" xlink:href="#DejaVuSans-101"/>
      <use x="670.525391" xlink:href="#DejaVuSans-32"/>
      <use x="702.3125" xlink:href="#DejaVuSans-73"/>
      <use x="731.804688" xlink:href="#DejaVuSans-110"/>
      <use x="795.183594" xlink:href="#DejaVuSans-116"/>
      <use x="834.392578" xlink:href="#DejaVuSans-101"/>
      <use x="895.916016" xlink:href="#DejaVuSans-114"/>
      <use x="937.029297" xlink:href="#DejaVuSans-118"/>
      <use x="996.208984" xlink:href="#DejaVuSans-97"/>
      <use x="1057.488281" xlink:href="#DejaVuSans-108"/>
      <use x="1085.271484" xlink:href="#DejaVuSans-32"/>
     </g>
     <!--  for tau -->
     <defs>
      <path d="M 8.5 21.578125 
L 8.5 54.6875 
L 17.484375 54.6875 
L 17.484375 21.921875 
Q 17.484375 14.15625 20.5 10.265625 
Q 23.53125 6.390625 29.59375 6.390625 
Q 36.859375 6.390625 41.078125 11.03125 
Q 45.3125 15.671875 45.3125 23.6875 
L 45.3125 54.6875 
L 54.296875 54.6875 
L 54.296875 0 
L 45.3125 0 
L 45.3125 8.40625 
Q 42.046875 3.421875 37.71875 1 
Q 33.40625 -1.421875 27.6875 -1.421875 
Q 18.265625 -1.421875 13.375 4.4375 
Q 8.5 10.296875 8.5 21.578125 
z
M 31.109375 56 
z
" id="DejaVuSans-117"/>
     </defs>
     <g style="fill:#262626;" transform="translate(414.219186 329.538516)scale(0.165 -0.165)">
      <use xlink:href="#DejaVuSans-32"/>
      <use x="31.787109" xlink:href="#DejaVuSans-102"/>
      <use x="66.992188" xlink:href="#DejaVuSans-111"/>
      <use x="128.173828" xlink:href="#DejaVuSans-114"/>
      <use x="169.287109" xlink:href="#DejaVuSans-32"/>
      <use x="201.074219" xlink:href="#DejaVuSans-116"/>
      <use x="240.283203" xlink:href="#DejaVuSans-97"/>
      <use x="301.5625" xlink:href="#DejaVuSans-117"/>
     </g>
    </g>
   </g>
  </g>
  <g id="axes_2">
   <g id="patch_10">
    <path d="M 715.591674 347.82 
L 1263.861875 347.82 
L 1263.861875 7.2 
L 715.591674 7.2 
z
" style="fill:#eaeaf2;"/>
   </g>
   <g id="matplotlib.axis_3">
    <g id="xtick_8">
     <g id="line2d_20">
      <path clip-path="url(#p8d36b8afa9)" d="M 740.513046 347.82 
L 740.513046 7.2 
" style="fill:none;stroke:#ffffff;stroke-linecap:round;"/>
     </g>
     <g id="text_22">
      <!-- 03/03 -->
      <defs>
       <path d="M 25.390625 72.90625 
L 33.6875 72.90625 
L 8.296875 -9.28125 
L 0 -9.28125 
z
" id="DejaVuSans-47"/>
      </defs>
      <g style="fill:#262626;" transform="translate(716.737578 369.857422)scale(0.165 -0.165)">
       <use xlink:href="#DejaVuSans-48"/>
       <use x="63.623047" xlink:href="#DejaVuSans-51"/>
       <use x="127.246094" xlink:href="#DejaVuSans-47"/>
       <use x="160.9375" xlink:href="#DejaVuSans-48"/>
       <use x="224.560547" xlink:href="#DejaVuSans-51"/>
      </g>
     </g>
    </g>
    <g id="xtick_9">
     <g id="line2d_21">
      <path clip-path="url(#p8d36b8afa9)" d="M 827.95646 347.82 
L 827.95646 7.2 
" style="fill:none;stroke:#ffffff;stroke-linecap:round;"/>
     </g>
     <g id="text_23">
      <!-- 13/03 -->
      <g style="fill:#262626;" transform="translate(804.180991 369.857422)scale(0.165 -0.165)">
       <use xlink:href="#DejaVuSans-49"/>
       <use x="63.623047" xlink:href="#DejaVuSans-51"/>
       <use x="127.246094" xlink:href="#DejaVuSans-47"/>
       <use x="160.9375" xlink:href="#DejaVuSans-48"/>
       <use x="224.560547" xlink:href="#DejaVuSans-51"/>
      </g>
     </g>
    </g>
    <g id="xtick_10">
     <g id="line2d_22">
      <path clip-path="url(#p8d36b8afa9)" d="M 915.399873 347.82 
L 915.399873 7.2 
" style="fill:none;stroke:#ffffff;stroke-linecap:round;"/>
     </g>
     <g id="text_24">
      <!-- 23/03 -->
      <g style="fill:#262626;" transform="translate(891.624404 369.857422)scale(0.165 -0.165)">
       <use xlink:href="#DejaVuSans-50"/>
       <use x="63.623047" xlink:href="#DejaVuSans-51"/>
       <use x="127.246094" xlink:href="#DejaVuSans-47"/>
       <use x="160.9375" xlink:href="#DejaVuSans-48"/>
       <use x="224.560547" xlink:href="#DejaVuSans-51"/>
      </g>
     </g>
    </g>
    <g id="xtick_11">
     <g id="line2d_23">
      <path clip-path="url(#p8d36b8afa9)" d="M 1002.843286 347.82 
L 1002.843286 7.2 
" style="fill:none;stroke:#ffffff;stroke-linecap:round;"/>
     </g>
     <g id="text_25">
      <!-- 02/04 -->
      <g style="fill:#262626;" transform="translate(979.067818 369.857422)scale(0.165 -0.165)">
       <use xlink:href="#DejaVuSans-48"/>
       <use x="63.623047" xlink:href="#DejaVuSans-50"/>
       <use x="127.246094" xlink:href="#DejaVuSans-47"/>
       <use x="160.9375" xlink:href="#DejaVuSans-48"/>
       <use x="224.560547" xlink:href="#DejaVuSans-52"/>
      </g>
     </g>
    </g>
    <g id="xtick_12">
     <g id="line2d_24">
      <path clip-path="url(#p8d36b8afa9)" d="M 1090.2867 347.82 
L 1090.2867 7.2 
" style="fill:none;stroke:#ffffff;stroke-linecap:round;"/>
     </g>
     <g id="text_26">
      <!-- 12/04 -->
      <g style="fill:#262626;" transform="translate(1066.511231 369.857422)scale(0.165 -0.165)">
       <use xlink:href="#DejaVuSans-49"/>
       <use x="63.623047" xlink:href="#DejaVuSans-50"/>
       <use x="127.246094" xlink:href="#DejaVuSans-47"/>
       <use x="160.9375" xlink:href="#DejaVuSans-48"/>
       <use x="224.560547" xlink:href="#DejaVuSans-52"/>
      </g>
     </g>
    </g>
    <g id="xtick_13">
     <g id="line2d_25">
      <path clip-path="url(#p8d36b8afa9)" d="M 1177.730113 347.82 
L 1177.730113 7.2 
" style="fill:none;stroke:#ffffff;stroke-linecap:round;"/>
     </g>
     <g id="text_27">
      <!-- 22/04 -->
      <g style="fill:#262626;" transform="translate(1153.954644 369.857422)scale(0.165 -0.165)">
       <use xlink:href="#DejaVuSans-50"/>
       <use x="63.623047" xlink:href="#DejaVuSans-50"/>
       <use x="127.246094" xlink:href="#DejaVuSans-47"/>
       <use x="160.9375" xlink:href="#DejaVuSans-48"/>
       <use x="224.560547" xlink:href="#DejaVuSans-52"/>
      </g>
     </g>
    </g>
    <g id="text_28">
     <!-- Date -->
     <g style="fill:#262626;" transform="translate(968.215368 396.966094)scale(0.18 -0.18)">
      <use xlink:href="#DejaVuSans-68"/>
      <use x="77.001953" xlink:href="#DejaVuSans-97"/>
      <use x="138.28125" xlink:href="#DejaVuSans-116"/>
      <use x="177.490234" xlink:href="#DejaVuSans-101"/>
     </g>
    </g>
   </g>
   <g id="matplotlib.axis_4">
    <g id="ytick_7">
     <g id="line2d_26">
      <path clip-path="url(#p8d36b8afa9)" d="M 715.591674 332.337273 
L 1263.861875 332.337273 
" style="fill:none;stroke:#ffffff;stroke-linecap:round;"/>
     </g>
     <g id="text_29">
      <!-- 0 -->
      <g style="fill:#262626;" transform="translate(695.593549 338.605984)scale(0.165 -0.165)">
       <use xlink:href="#DejaVuSans-48"/>
      </g>
     </g>
    </g>
    <g id="ytick_8">
     <g id="line2d_27">
      <path clip-path="url(#p8d36b8afa9)" d="M 715.591674 261.421311 
L 1263.861875 261.421311 
" style="fill:none;stroke:#ffffff;stroke-linecap:round;"/>
     </g>
     <g id="text_30">
      <!-- 2000 -->
      <g style="fill:#262626;" transform="translate(664.099174 267.690022)scale(0.165 -0.165)">
       <use xlink:href="#DejaVuSans-50"/>
       <use x="63.623047" xlink:href="#DejaVuSans-48"/>
       <use x="127.246094" xlink:href="#DejaVuSans-48"/>
       <use x="190.869141" xlink:href="#DejaVuSans-48"/>
      </g>
     </g>
    </g>
    <g id="ytick_9">
     <g id="line2d_28">
      <path clip-path="url(#p8d36b8afa9)" d="M 715.591674 190.50535 
L 1263.861875 190.50535 
" style="fill:none;stroke:#ffffff;stroke-linecap:round;"/>
     </g>
     <g id="text_31">
      <!-- 4000 -->
      <g style="fill:#262626;" transform="translate(664.099174 196.774061)scale(0.165 -0.165)">
       <use xlink:href="#DejaVuSans-52"/>
       <use x="63.623047" xlink:href="#DejaVuSans-48"/>
       <use x="127.246094" xlink:href="#DejaVuSans-48"/>
       <use x="190.869141" xlink:href="#DejaVuSans-48"/>
      </g>
     </g>
    </g>
    <g id="ytick_10">
     <g id="line2d_29">
      <path clip-path="url(#p8d36b8afa9)" d="M 715.591674 119.589389 
L 1263.861875 119.589389 
" style="fill:none;stroke:#ffffff;stroke-linecap:round;"/>
     </g>
     <g id="text_32">
      <!-- 6000 -->
      <g style="fill:#262626;" transform="translate(664.099174 125.858099)scale(0.165 -0.165)">
       <use xlink:href="#DejaVuSans-54"/>
       <use x="63.623047" xlink:href="#DejaVuSans-48"/>
       <use x="127.246094" xlink:href="#DejaVuSans-48"/>
       <use x="190.869141" xlink:href="#DejaVuSans-48"/>
      </g>
     </g>
    </g>
    <g id="ytick_11">
     <g id="line2d_30">
      <path clip-path="url(#p8d36b8afa9)" d="M 715.591674 48.673427 
L 1263.861875 48.673427 
" style="fill:none;stroke:#ffffff;stroke-linecap:round;"/>
     </g>
     <g id="text_33">
      <!-- 8000 -->
      <g style="fill:#262626;" transform="translate(664.099174 54.942138)scale(0.165 -0.165)">
       <use xlink:href="#DejaVuSans-56"/>
       <use x="63.623047" xlink:href="#DejaVuSans-48"/>
       <use x="127.246094" xlink:href="#DejaVuSans-48"/>
       <use x="190.869141" xlink:href="#DejaVuSans-48"/>
      </g>
     </g>
    </g>
    <g id="text_34">
     <!-- Daily new cases -->
     <g style="fill:#262626;" transform="translate(650.355736 249.983906)rotate(-90)scale(0.18 -0.18)">
      <use xlink:href="#DejaVuSans-68"/>
      <use x="77.001953" xlink:href="#DejaVuSans-97"/>
      <use x="138.28125" xlink:href="#DejaVuSans-105"/>
      <use x="166.064453" xlink:href="#DejaVuSans-108"/>
      <use x="193.847656" xlink:href="#DejaVuSans-121"/>
      <use x="253.027344" xlink:href="#DejaVuSans-32"/>
      <use x="284.814453" xlink:href="#DejaVuSans-110"/>
      <use x="348.193359" xlink:href="#DejaVuSans-101"/>
      <use x="409.716797" xlink:href="#DejaVuSans-119"/>
      <use x="491.503906" xlink:href="#DejaVuSans-32"/>
      <use x="523.291016" xlink:href="#DejaVuSans-99"/>
      <use x="578.271484" xlink:href="#DejaVuSans-97"/>
      <use x="639.550781" xlink:href="#DejaVuSans-115"/>
      <use x="691.650391" xlink:href="#DejaVuSans-101"/>
      <use x="753.173828" xlink:href="#DejaVuSans-115"/>
     </g>
    </g>
   </g>
   <g id="PolyCollection_3">
    <defs>
     <path d="M 1037.820652 -60.089531 
L 915.399873 -60.089531 
L 915.399873 -400.709531 
L 1037.820652 -400.709531 
L 1037.820652 -400.709531 
L 1037.820652 -60.089531 
z
" id="ma71d5208ac" style="stroke:#008080;stroke-opacity:0.25;"/>
    </defs>
    <g clip-path="url(#p8d36b8afa9)">
     <use style="fill:#008080;fill-opacity:0.25;stroke:#008080;stroke-opacity:0.25;" x="0" xlink:href="#ma71d5208ac" y="407.909531"/>
    </g>
   </g>
   <g id="line2d_31">
    <path clip-path="url(#p8d36b8afa9)" d="M 740.513046 331.947235 
L 749.257388 331.096243 
L 758.001729 331.273533 
L 766.74607 330.63529 
L 775.490412 330.81258 
L 784.234753 329.961588 
L 792.979094 330.63529 
L 801.723436 330.138878 
L 810.467777 329.677924 
L 819.212118 326.273958 
L 827.95646 326.2385 
L 836.700801 320.210643 
L 845.445142 332.301815 
L 854.189484 317.941333 
L 862.933825 317.834959 
L 871.678166 308.15493 
L 880.422508 329.713382 
L 889.166849 286.312814 
L 897.91119 295.000019 
L 906.655532 308.296762 
L 915.399873 297.552994 
L 924.144214 281.348696 
L 932.888556 280.001293 
L 941.632897 255.322539 
L 950.377238 228.339015 
L 959.12158 241.316636 
L 967.865921 244.826976 
L 976.610262 237.55809 
L 985.354604 224.970507 
L 994.098945 176.889485 
L 1002.843286 179.584292 
L 1011.587628 172.209032 
L 1020.331969 198.022442 
L 1029.07631 121.043166 
L 1037.820652 196.072253 
L 1046.564993 202.206484 
L 1055.309334 136.431929 
L 1064.053676 176.393074 
L 1072.798017 22.682727 
L 1081.542358 145.509172 
L 1090.2867 143.27532 
L 1099.031041 177.598645 
L 1107.775382 145.296425 
L 1116.519724 167.883158 
L 1125.264065 167.032167 
L 1134.008406 132.921589 
L 1142.752748 135.72277 
L 1151.497089 124.624422 
L 1160.24143 166.252091 
L 1168.985772 179.300628 
L 1177.730113 173.981931 
L 1186.474454 168.946898 
L 1195.218796 141.076925 
L 1203.963137 157.564886 
L 1212.707478 173.911015 
L 1221.45182 179.477918 
L 1230.196161 190.434434 
L 1238.940502 187.278674 
" style="fill:none;stroke:#4c72b0;stroke-linecap:round;stroke-width:1.5;"/>
   </g>
   <g id="line2d_32">
    <path clip-path="url(#p8d36b8afa9)" d="M 740.513046 332.062473 
L 749.257388 331.77881 
L 758.001729 331.628113 
L 766.74607 331.238075 
L 775.490412 330.954411 
L 784.234753 330.670748 
L 792.979094 330.511187 
L 801.723436 330.387084 
L 810.467777 330.10342 
L 819.212118 330.697341 
L 827.95646 328.082315 
L 836.700801 325.600256 
L 845.445142 326.256229 
L 854.189484 322.657244 
L 862.933825 322.072187 
L 871.678166 319.058259 
L 880.422508 318.411151 
L 889.166849 310.504021 
L 897.91119 304.795286 
L 906.655532 304.830744 
L 915.399873 296.790647 
L 924.144214 295.549618 
L 932.888556 291.799936 
L 941.632897 278.556381 
L 950.377238 261.252886 
L 959.12158 251.244871 
L 967.865921 242.451292 
L 976.610262 238.01018 
L 985.354604 237.168053 
L 994.098945 221.061265 
L 1002.843286 204.750594 
L 1011.587628 188.413329 
L 1020.331969 181.676313 
L 1029.07631 167.714733 
L 1037.820652 171.836723 
L 1046.564993 179.336086 
L 1055.309334 163.938458 
L 1064.053676 177.775935 
L 1072.798017 134.428553 
L 1081.542358 120.254226 
L 1090.2867 121.965073 
L 1099.031041 122.266466 
L 1107.775382 152.91989 
L 1116.519724 158.513387 
L 1125.264065 164.452599 
L 1134.008406 153.283335 
L 1142.752748 150.889921 
L 1151.497089 140.075237 
L 1160.24143 139.880218 
L 1168.985772 151.474978 
L 1177.730113 161.039768 
L 1186.474454 172.120387 
L 1195.218796 165.826595 
L 1203.963137 160.39266 
L 1212.707478 160.374931 
L 1221.45182 163.007686 
L 1230.196161 175.347063 
L 1238.940502 182.77551 
" style="fill:none;stroke:#dd8452;stroke-linecap:round;stroke-width:1.5;"/>
   </g>
   <g id="line2d_33">
    <path clip-path="url(#p8d36b8afa9)" d="M 994.098945 347.82 
L 994.098945 7.2 
" style="fill:none;stroke:#000000;stroke-dasharray:6.66,2.88;stroke-dashoffset:0;stroke-width:1.8;"/>
   </g>
   <g id="patch_11">
    <path d="M 715.591674 347.82 
L 715.591674 7.2 
" style="fill:none;stroke:#ffffff;stroke-linecap:square;stroke-linejoin:miter;stroke-width:1.25;"/>
   </g>
   <g id="patch_12">
    <path d="M 1263.861875 347.82 
L 1263.861875 7.2 
" style="fill:none;stroke:#ffffff;stroke-linecap:square;stroke-linejoin:miter;stroke-width:1.25;"/>
   </g>
   <g id="patch_13">
    <path d="M 715.591674 347.82 
L 1263.861875 347.82 
" style="fill:none;stroke:#ffffff;stroke-linecap:square;stroke-linejoin:miter;stroke-width:1.25;"/>
   </g>
   <g id="patch_14">
    <path d="M 715.591674 7.2 
L 1263.861875 7.2 
" style="fill:none;stroke:#ffffff;stroke-linecap:square;stroke-linejoin:miter;stroke-width:1.25;"/>
   </g>
   <g id="legend_2">
    <g id="patch_15">
     <path d="M 727.141674 135.752016 
L 964.259564 135.752016 
Q 967.559564 135.752016 967.559564 132.452016 
L 967.559564 18.75 
Q 967.559564 15.45 964.259564 15.45 
L 727.141674 15.45 
Q 723.841674 15.45 723.841674 18.75 
L 723.841674 132.452016 
Q 723.841674 135.752016 727.141674 135.752016 
z
" style="fill:#eaeaf2;opacity:0.8;stroke:#cccccc;stroke-linejoin:miter;"/>
    </g>
    <g id="line2d_34">
     <path d="M 730.441674 28.812422 
L 763.441674 28.812422 
" style="fill:none;stroke:#4c72b0;stroke-linecap:round;stroke-width:1.5;"/>
    </g>
    <g id="line2d_35"/>
    <g id="text_35">
     <!-- New Cases -->
     <defs>
      <path d="M 9.8125 72.90625 
L 23.09375 72.90625 
L 55.421875 11.921875 
L 55.421875 72.90625 
L 64.984375 72.90625 
L 64.984375 0 
L 51.703125 0 
L 19.390625 60.984375 
L 19.390625 0 
L 9.8125 0 
z
" id="DejaVuSans-78"/>
     </defs>
     <g style="fill:#262626;" transform="translate(776.641674 34.587422)scale(0.165 -0.165)">
      <use xlink:href="#DejaVuSans-78"/>
      <use x="74.804688" xlink:href="#DejaVuSans-101"/>
      <use x="136.328125" xlink:href="#DejaVuSans-119"/>
      <use x="218.115234" xlink:href="#DejaVuSans-32"/>
      <use x="249.902344" xlink:href="#DejaVuSans-67"/>
      <use x="319.726562" xlink:href="#DejaVuSans-97"/>
      <use x="381.005859" xlink:href="#DejaVuSans-115"/>
      <use x="433.105469" xlink:href="#DejaVuSans-101"/>
      <use x="494.628906" xlink:href="#DejaVuSans-115"/>
     </g>
    </g>
    <g id="line2d_36">
     <path d="M 730.441674 53.031328 
L 763.441674 53.031328 
" style="fill:none;stroke:#dd8452;stroke-linecap:round;stroke-width:1.5;"/>
    </g>
    <g id="line2d_37"/>
    <g id="text_36">
     <!-- Moving Average -->
     <defs>
      <path d="M 34.1875 63.1875 
L 20.796875 26.90625 
L 47.609375 26.90625 
z
M 28.609375 72.90625 
L 39.796875 72.90625 
L 67.578125 0 
L 57.328125 0 
L 50.6875 18.703125 
L 17.828125 18.703125 
L 11.1875 0 
L 0.78125 0 
z
" id="DejaVuSans-65"/>
     </defs>
     <g style="fill:#262626;" transform="translate(776.641674 58.806328)scale(0.165 -0.165)">
      <use xlink:href="#DejaVuSans-77"/>
      <use x="86.279297" xlink:href="#DejaVuSans-111"/>
      <use x="147.460938" xlink:href="#DejaVuSans-118"/>
      <use x="206.640625" xlink:href="#DejaVuSans-105"/>
      <use x="234.423828" xlink:href="#DejaVuSans-110"/>
      <use x="297.802734" xlink:href="#DejaVuSans-103"/>
      <use x="361.279297" xlink:href="#DejaVuSans-32"/>
      <use x="393.066406" xlink:href="#DejaVuSans-65"/>
      <use x="461.396484" xlink:href="#DejaVuSans-118"/>
      <use x="520.576172" xlink:href="#DejaVuSans-101"/>
      <use x="582.099609" xlink:href="#DejaVuSans-114"/>
      <use x="623.212891" xlink:href="#DejaVuSans-97"/>
      <use x="684.492188" xlink:href="#DejaVuSans-103"/>
      <use x="747.96875" xlink:href="#DejaVuSans-101"/>
     </g>
    </g>
    <g id="line2d_38">
     <path d="M 730.441674 77.250234 
L 763.441674 77.250234 
" style="fill:none;stroke:#000000;stroke-dasharray:6.66,2.88;stroke-dashoffset:0;stroke-width:1.8;"/>
    </g>
    <g id="line2d_39"/>
    <g id="text_37">
     <!-- Day of Change -->
     <g style="fill:#262626;" transform="translate(776.641674 83.025234)scale(0.165 -0.165)">
      <use xlink:href="#DejaVuSans-68"/>
      <use x="77.001953" xlink:href="#DejaVuSans-97"/>
      <use x="138.28125" xlink:href="#DejaVuSans-121"/>
      <use x="197.460938" xlink:href="#DejaVuSans-32"/>
      <use x="229.248047" xlink:href="#DejaVuSans-111"/>
      <use x="290.429688" xlink:href="#DejaVuSans-102"/>
      <use x="325.634766" xlink:href="#DejaVuSans-32"/>
      <use x="357.421875" xlink:href="#DejaVuSans-67"/>
      <use x="427.246094" xlink:href="#DejaVuSans-104"/>
      <use x="490.625" xlink:href="#DejaVuSans-97"/>
      <use x="551.904297" xlink:href="#DejaVuSans-110"/>
      <use x="615.283203" xlink:href="#DejaVuSans-103"/>
      <use x="678.759766" xlink:href="#DejaVuSans-101"/>
     </g>
    </g>
    <g id="patch_16">
     <path d="M 730.441674 118.198078 
L 763.441674 118.198078 
L 763.441674 106.648078 
L 730.441674 106.648078 
z
" style="fill:#008080;opacity:0.25;stroke:#008080;stroke-linejoin:miter;"/>
    </g>
    <g id="text_38">
     <!-- 90% Credible Interval  -->
     <g style="fill:#262626;" transform="translate(776.641674 107.244141)scale(0.165 -0.165)">
      <use xlink:href="#DejaVuSans-57"/>
      <use x="63.623047" xlink:href="#DejaVuSans-48"/>
      <use x="127.246094" xlink:href="#DejaVuSans-37"/>
      <use x="222.265625" xlink:href="#DejaVuSans-32"/>
      <use x="254.052734" xlink:href="#DejaVuSans-67"/>
      <use x="323.876953" xlink:href="#DejaVuSans-114"/>
      <use x="364.958984" xlink:href="#DejaVuSans-101"/>
      <use x="426.482422" xlink:href="#DejaVuSans-100"/>
      <use x="489.958984" xlink:href="#DejaVuSans-105"/>
      <use x="517.742188" xlink:href="#DejaVuSans-98"/>
      <use x="581.21875" xlink:href="#DejaVuSans-108"/>
      <use x="609.001953" xlink:href="#DejaVuSans-101"/>
      <use x="670.525391" xlink:href="#DejaVuSans-32"/>
      <use x="702.3125" xlink:href="#DejaVuSans-73"/>
      <use x="731.804688" xlink:href="#DejaVuSans-110"/>
      <use x="795.183594" xlink:href="#DejaVuSans-116"/>
      <use x="834.392578" xlink:href="#DejaVuSans-101"/>
      <use x="895.916016" xlink:href="#DejaVuSans-114"/>
      <use x="937.029297" xlink:href="#DejaVuSans-118"/>
      <use x="996.208984" xlink:href="#DejaVuSans-97"/>
      <use x="1057.488281" xlink:href="#DejaVuSans-108"/>
      <use x="1085.271484" xlink:href="#DejaVuSans-32"/>
     </g>
     <!--  for tau -->
     <g style="fill:#262626;" transform="translate(776.641674 125.720531)scale(0.165 -0.165)">
      <use xlink:href="#DejaVuSans-32"/>
      <use x="31.787109" xlink:href="#DejaVuSans-102"/>
      <use x="66.992188" xlink:href="#DejaVuSans-111"/>
      <use x="128.173828" xlink:href="#DejaVuSans-114"/>
      <use x="169.287109" xlink:href="#DejaVuSans-32"/>
      <use x="201.074219" xlink:href="#DejaVuSans-116"/>
      <use x="240.283203" xlink:href="#DejaVuSans-97"/>
      <use x="301.5625" xlink:href="#DejaVuSans-117"/>
     </g>
    </g>
   </g>
  </g>
 </g>
 <defs>
  <clipPath id="p6ef12b0a35">
   <rect height="340.62" width="548.270201" x="65.116875" y="7.2"/>
  </clipPath>
  <clipPath id="p8d36b8afa9">
   <rect height="340.62" width="548.270201" x="715.591674" y="7.2"/>
  </clipPath>
 </defs>
</svg>
